<svg xmlns="http://www.w3.org/2000/svg" xmlns:xlink="http://www.w3.org/1999/xlink" width="100" zoomAndPan="magnify" viewBox="0 0 75 74.999997" height="100" preserveAspectRatio="xMidYMid meet" version="1.0"><defs><clipPath id="152998783d"><path d="M 1.0625 3 L 74 3 L 74 73 L 1.0625 73 Z M 1.0625 3 " clip-rule="nonzero"/></clipPath></defs><g clip-path="url(#152998783d)"><path fill="#8f1a1a" d="M 1.066406 72.664062 L 1.066406 31.859375 C 1.425781 31.621094 1.503906 31.808594 1.867188 31.566406 C 2.085938 31.421875 1.921875 31.300781 2.144531 31.148438 C 2.664062 30.796875 5.792969 30.78125 7.144531 30.777344 C 12.070312 30.753906 14.996094 30.464844 17.832031 30.722656 C 20.519531 30.96875 20.773438 30.707031 22.863281 30.777344 C 25.210938 30.855469 25.816406 31.214844 25.679688 32.570312 C 25.601562 33.34375 25.574219 33.332031 22.667969 41.808594 C 18.828125 53.015625 18.496094 53.054688 18.847656 53.925781 C 19.21875 54.835938 21.339844 54.707031 22.867188 54.699219 C 40.5 54.636719 40.519531 54.644531 42.894531 54.113281 C 45.90625 53.441406 48.085938 51.589844 48.640625 51.242188 C 49.46875 50.722656 50.988281 48.972656 51.570312 47.667969 C 51.644531 47.5 52.105469 46.457031 52.523438 45.613281 C 52.839844 44.980469 53.84375 42.957031 54.003906 36.882812 C 54.03125 35.929688 53.265625 31.234375 52.027344 29.066406 C 51.289062 27.765625 51.308594 27.757812 50.367188 26.601562 C 49.433594 25.453125 49.414062 25.492188 49.332031 25.394531 C 49.09375 25.09375 49.066406 25.128906 48.101562 24.398438 C 47.078125 23.625 47.097656 23.617188 47 23.5625 C 46.453125 23.230469 46.402344 23.382812 45.832031 23.066406 C 45.742188 23.015625 45.699219 22.898438 45.605469 22.851562 C 45.394531 22.75 45.382812 22.789062 42.828125 22.019531 C 39.085938 20.894531 17.84375 21.464844 4.28125 21.347656 C 2.648438 21.332031 2.367188 21.089844 2.152344 21.074219 C 1.792969 21.046875 1.429688 21.144531 1.066406 21.121094 L 1.066406 3.9375 C 1.960938 3.894531 1.957031 3.980469 2.84375 3.851562 C 3.777344 3.71875 4.984375 3.679688 27.15625 3.695312 C 43.929688 3.703125 44.046875 3.429688 52.898438 6.046875 C 54.0625 6.390625 57.828125 8.246094 58.6875 8.800781 C 59.121094 9.082031 59.097656 9.097656 59.515625 9.382812 C 60.171875 9.832031 60.175781 9.804688 60.816406 10.277344 C 62.671875 11.644531 62.699219 11.605469 64.3125 13.253906 C 64.425781 13.367188 65.472656 14.433594 65.722656 14.703125 C 66.953125 16.023438 69.960938 20.367188 70.703125 22.570312 C 70.980469 23.390625 71.304688 24.039062 71.308594 24.050781 C 75.015625 32.941406 74.65625 44.539062 70.902344 52.6875 C 69.964844 54.730469 70.199219 54.855469 68.710938 56.980469 C 68.035156 57.941406 67.898438 58.195312 67.835938 58.304688 C 67.257812 59.351562 66.695312 59.898438 66.671875 59.925781 C 66.554688 60.078125 66.496094 60.273438 66.375 60.421875 C 66.277344 60.542969 66.125 60.609375 66.027344 60.730469 C 65.800781 61.003906 65.660156 61.339844 65.414062 61.59375 C 65.175781 61.835938 64.851562 61.980469 64.597656 62.207031 C 64.472656 62.320312 64.40625 62.488281 64.285156 62.609375 C 62.957031 63.925781 62.964844 63.917969 62.851562 64.03125 C 61.265625 65.605469 58.953125 67.257812 57.925781 67.722656 C 57.128906 68.082031 50.308594 72.277344 40.734375 72.316406 C 35.007812 72.34375 35.023438 72.5625 29.308594 72.449219 C 24.484375 72.351562 5.820312 72.640625 2.886719 72.425781 C 1.496094 72.320312 1.40625 72.621094 1.066406 72.664062 Z M 1.066406 72.664062 " fill-opacity="1" fill-rule="evenodd"/></g></svg>