<svg xmlns="http://www.w3.org/2000/svg" xmlns:xlink="http://www.w3.org/1999/xlink" width="1000" zoomAndPan="magnify" viewBox="0 0 750 225" height="300" preserveAspectRatio="xMidYMid meet" version="1.0"><defs><g/><clipPath id="aab481963c"><path d="M 36.261719 28 L 173 28 L 173 158 L 36.261719 158 Z M 36.261719 28 " clip-rule="nonzero"/></clipPath><clipPath id="eab74fd2f1"><rect x="0" width="70" y="0" height="50"/></clipPath></defs><g clip-path="url(#aab481963c)"><path fill="#8f1a1a" d="M 36.261719 157.609375 L 36.261719 81.050781 C 36.933594 80.605469 37.074219 80.957031 37.757812 80.503906 C 38.171875 80.230469 37.859375 80.003906 38.277344 79.71875 C 39.253906 79.054688 45.117188 79.03125 47.652344 79.019531 C 56.886719 78.980469 62.367188 78.4375 67.6875 78.921875 C 72.722656 79.378906 73.195312 78.890625 77.113281 79.019531 C 81.519531 79.167969 82.652344 79.847656 82.398438 82.382812 C 82.25 83.835938 82.195312 83.816406 76.75 99.71875 C 69.550781 120.746094 68.929688 120.816406 69.589844 122.453125 C 70.28125 124.164062 74.261719 123.917969 77.125 123.90625 C 110.171875 123.789062 110.210938 123.804688 114.664062 122.808594 C 120.3125 121.542969 124.394531 118.066406 125.4375 117.414062 C 126.992188 116.441406 129.835938 113.164062 130.925781 110.710938 C 131.0625 110.398438 131.933594 108.441406 132.714844 106.859375 C 133.308594 105.667969 135.1875 101.875 135.492188 90.476562 C 135.539062 88.691406 134.105469 79.878906 131.789062 75.8125 C 130.398438 73.371094 130.4375 73.359375 128.671875 71.1875 C 126.921875 69.035156 126.882812 69.105469 126.734375 68.917969 C 126.28125 68.359375 126.238281 68.421875 124.421875 67.050781 C 122.507812 65.601562 122.539062 65.589844 122.363281 65.484375 C 121.339844 64.863281 121.238281 65.148438 120.171875 64.554688 C 120.003906 64.460938 119.921875 64.238281 119.742188 64.152344 C 119.355469 63.960938 119.328125 64.03125 114.539062 62.589844 C 107.527344 60.480469 67.707031 61.550781 42.285156 61.328125 C 39.222656 61.300781 38.691406 60.84375 38.292969 60.816406 C 37.617188 60.769531 36.9375 60.949219 36.261719 60.902344 L 36.261719 28.667969 C 37.933594 28.585938 37.929688 28.75 39.589844 28.507812 C 41.335938 28.253906 43.601562 28.183594 85.160156 28.210938 C 116.609375 28.226562 116.824219 27.710938 133.414062 32.625 C 135.597656 33.269531 142.660156 36.753906 144.265625 37.792969 C 145.078125 38.316406 145.039062 38.34375 145.824219 38.882812 C 147.050781 39.722656 147.058594 39.675781 148.261719 40.5625 C 151.738281 43.125 151.785156 43.050781 154.8125 46.140625 C 155.027344 46.359375 156.984375 48.355469 157.457031 48.863281 C 159.761719 51.339844 165.40625 59.496094 166.792969 63.625 C 167.3125 65.164062 167.921875 66.382812 167.929688 66.402344 C 174.871094 83.082031 174.203125 104.84375 167.167969 120.132812 C 165.40625 123.964844 165.847656 124.195312 163.054688 128.183594 C 161.792969 129.988281 161.53125 130.460938 161.417969 130.667969 C 160.332031 132.632812 159.285156 133.65625 159.238281 133.714844 C 159.019531 134 158.910156 134.359375 158.683594 134.640625 C 158.5 134.867188 158.210938 134.996094 158.027344 135.21875 C 157.605469 135.730469 157.335938 136.359375 156.878906 136.835938 C 156.433594 137.296875 155.824219 137.5625 155.347656 137.988281 C 155.113281 138.203125 154.988281 138.519531 154.765625 138.742188 C 152.273438 141.210938 152.289062 141.199219 152.074219 141.414062 C 149.097656 144.363281 144.765625 147.46875 142.839844 148.335938 C 141.347656 149.011719 128.5625 156.882812 110.613281 156.960938 C 99.882812 157.007812 99.90625 157.421875 89.195312 157.203125 C 80.152344 157.019531 45.167969 157.566406 39.667969 157.160156 C 37.058594 156.964844 36.898438 157.527344 36.261719 157.609375 Z M 36.261719 157.609375 " fill-opacity="1" fill-rule="evenodd"/></g><path fill="#171717" d="M 292.113281 83.675781 C 292.964844 95.148438 295.964844 120.839844 273.832031 131.589844 C 266.265625 135.261719 255.585938 135.277344 253.96875 135.277344 C 223.09375 135.324219 223.089844 135.550781 220.425781 135.226562 C 216.824219 134.785156 216.929688 133.402344 216.875 117.3125 C 216.859375 112.382812 216.671875 57.058594 217.054688 55.65625 C 218.078125 51.929688 219.4375 52.375 239.234375 52.617188 C 263.003906 52.90625 276.0625 51.625 286.601562 67.3125 C 287.371094 68.460938 290.757812 73.5 292.113281 83.675781 Z M 249.945312 72.375 C 243.8125 72.28125 239.808594 71.445312 239.671875 77.039062 C 239.632812 78.78125 239.667969 111.433594 239.742188 111.890625 C 240.3125 115.308594 241.96875 115.691406 253.941406 115.414062 C 265.621094 115.140625 267.890625 105.199219 268.21875 103.757812 C 269.652344 97.472656 270.515625 80.46875 263.367188 75.65625 C 258.507812 72.386719 254.660156 72.414062 249.945312 72.375 Z M 249.945312 72.375 " fill-opacity="1" fill-rule="evenodd"/><path fill="#181818" d="M 426.800781 103.164062 C 421.578125 103.488281 419.996094 103.417969 419.898438 109.253906 C 419.546875 130.503906 419.832031 133.183594 418.417969 134.367188 C 417.6875 134.976562 417.636719 135.421875 402.671875 135.296875 C 396.953125 135.253906 396.699219 133.820312 396.589844 128.074219 C 396.398438 117.757812 396.605469 65.039062 396.628906 59.558594 C 396.628906 59.503906 396.066406 54.082031 398.746094 53.027344 C 398.769531 53.015625 398.722656 52.28125 413.402344 52.566406 C 419.097656 52.679688 419.664062 53.832031 419.699219 59.5625 C 419.820312 79.675781 418.929688 82.585938 424.054688 83.019531 C 424.238281 83.035156 443.457031 83.589844 445.710938 82.820312 C 449.167969 81.640625 447.910156 74.285156 448.152344 58.214844 C 448.171875 56.863281 448.144531 54.910156 449.136719 53.808594 C 450.511719 52.28125 451.292969 52.457031 464.3125 52.488281 C 469.242188 52.5 471.230469 52.671875 471.375 58.207031 C 471.515625 63.683594 471.5 63.683594 471.351562 126.71875 C 471.339844 132.273438 471.863281 135.179688 465.664062 135.28125 C 451.125 135.523438 450.789062 135.269531 449.765625 134.507812 C 447.347656 132.707031 448.238281 121.628906 448.09375 109.257812 C 448.027344 103.824219 446.945312 103.261719 441.542969 103.230469 C 434.15625 103.1875 434.175781 103.148438 426.800781 103.164062 Z M 426.800781 103.164062 " fill-opacity="1" fill-rule="evenodd"/><path fill="#171717" d="M 493.785156 135.339844 C 493.242188 135.339844 487.554688 135.328125 487.03125 135.285156 C 482.683594 134.914062 483.910156 132.074219 484.832031 129.5625 C 499.886719 88.503906 500.742188 86.277344 502.179688 82.53125 C 512.34375 56.035156 512.332031 56.035156 512.550781 55.535156 C 514.027344 52.140625 518.074219 52.582031 523.257812 52.554688 C 538.183594 52.46875 539.476562 51.992188 541.667969 57.019531 C 542.984375 60.03125 552.550781 86.730469 553.476562 89.320312 C 568.800781 132.09375 570.273438 133.410156 567.472656 134.785156 C 566.398438 135.3125 562.542969 135.332031 562.113281 135.332031 C 547.828125 135.40625 547.839844 135.003906 547.359375 134.808594 C 543.988281 133.460938 543.742188 124.664062 540.628906 122.761719 C 538.984375 121.753906 538.789062 121.636719 516.566406 121.847656 C 509.703125 121.914062 510.511719 125.628906 507.933594 131.832031 C 506.195312 136.015625 502.316406 135.339844 493.785156 135.339844 Z M 534.503906 99.753906 C 534.359375 99.222656 533.429688 95.851562 532.492188 93.1875 C 527.808594 79.886719 528.550781 79.683594 528.117188 78.539062 C 527.507812 76.921875 527.507812 76.433594 525.828125 76.734375 C 524.699219 76.933594 524.445312 80.144531 523.339844 83.761719 C 519.378906 96.722656 519.074219 96.851562 518.519531 98.6875 C 516.792969 104.402344 522.046875 103.699219 524.597656 103.691406 C 529.5 103.671875 533.523438 103.867188 534.164062 102.699219 C 534.992188 101.183594 534.503906 99.769531 534.503906 99.753906 Z M 534.503906 99.753906 " fill-opacity="1" fill-rule="evenodd"/><path fill="#171717" d="M 349.121094 136.757812 C 342.472656 137.105469 322.71875 138.757812 312.410156 124.378906 C 306.597656 116.265625 307.175781 109.886719 307.015625 89.117188 C 306.976562 84.5 306.964844 58.542969 307.089844 56.832031 C 307.4375 52.125 309.578125 52.417969 323.636719 52.488281 C 329.027344 52.515625 329.933594 53.480469 329.992188 58.222656 C 330.332031 86.351562 329.058594 104.863281 331.777344 110.546875 C 335.984375 119.355469 354.445312 118.652344 356.265625 108.027344 C 357.519531 100.71875 356.300781 59.214844 357.203125 55.546875 C 358.054688 52.089844 361.523438 52.4375 373.210938 52.535156 C 379.207031 52.585938 379.945312 53.6875 379.980469 59.558594 C 380.296875 114.410156 379.238281 114.4375 378.222656 117.191406 C 372.4375 132.863281 360.398438 135.929688 349.121094 136.757812 Z M 349.121094 136.757812 " fill-opacity="1" fill-rule="evenodd"/><path fill="#181818" d="M 614.355469 116.714844 C 617.589844 116.367188 617.613281 116.574219 619.703125 115.925781 C 628.933594 113.054688 627.832031 103.34375 627.871094 101.199219 C 628.714844 55.773438 627.367188 55.03125 629.566406 53.472656 C 630.789062 52.609375 635.289062 52.515625 635.792969 52.507812 C 648.054688 52.257812 650.046875 52.714844 650.808594 55.453125 C 651.242188 57.015625 651.207031 105.792969 650.878906 109.289062 C 650.484375 113.515625 647.941406 120.195312 647.449219 121.144531 C 643.6875 128.386719 639.011719 131.15625 635.601562 133.066406 C 627.378906 137.667969 602.242188 140.125 589.183594 130.367188 C 576.816406 121.128906 578.242188 106.074219 578.226562 99.855469 C 578.136719 55.167969 577.863281 54.535156 579.824219 53.296875 C 581.914062 51.980469 596.734375 52.339844 598.300781 52.785156 C 601.902344 53.8125 601.027344 56.265625 601.164062 77.019531 C 601.355469 106.488281 600.730469 111.3125 606.390625 114.523438 C 610.667969 116.953125 611.167969 116.480469 614.355469 116.714844 Z M 614.355469 116.714844 " fill-opacity="1" fill-rule="evenodd"/><g fill="#000000" fill-opacity="1"><g transform="translate(147.683462, 196.601018)"><g><path d="M 2.25 0 L 2.25 -16.390625 L 4.15625 -16.390625 L 4.15625 0 Z M 2.25 0 "/></g></g></g><g fill="#000000" fill-opacity="1"><g transform="translate(160.630689, 196.601018)"><g><path d="M 15.0625 0 L 12.890625 0 L 3.921875 -13.765625 L 3.828125 -13.765625 C 3.953125 -12.148438 4.015625 -10.664062 4.015625 -9.3125 L 4.015625 0 L 2.25 0 L 2.25 -16.390625 L 4.40625 -16.390625 L 13.34375 -2.6875 L 13.4375 -2.6875 C 13.414062 -2.894531 13.378906 -3.546875 13.328125 -4.640625 C 13.273438 -5.734375 13.257812 -6.515625 13.28125 -6.984375 L 13.28125 -16.390625 L 15.0625 -16.390625 Z M 15.0625 0 "/></g></g></g><g fill="#000000" fill-opacity="1"><g transform="translate(184.484741, 196.601018)"><g><path d="M 9.46875 -8.59375 L 15.046875 -8.59375 L 15.046875 -0.609375 C 14.171875 -0.335938 13.285156 -0.132812 12.390625 0 C 11.492188 0.144531 10.457031 0.21875 9.28125 0.21875 C 6.789062 0.21875 4.851562 -0.515625 3.46875 -1.984375 C 2.09375 -3.460938 1.40625 -5.535156 1.40625 -8.203125 C 1.40625 -9.898438 1.742188 -11.390625 2.421875 -12.671875 C 3.109375 -13.960938 4.09375 -14.941406 5.375 -15.609375 C 6.664062 -16.285156 8.175781 -16.625 9.90625 -16.625 C 11.65625 -16.625 13.285156 -16.304688 14.796875 -15.671875 L 14.046875 -13.984375 C 12.566406 -14.609375 11.144531 -14.921875 9.78125 -14.921875 C 7.78125 -14.921875 6.21875 -14.328125 5.09375 -13.140625 C 3.976562 -11.953125 3.421875 -10.304688 3.421875 -8.203125 C 3.421875 -5.984375 3.957031 -4.300781 5.03125 -3.15625 C 6.113281 -2.019531 7.703125 -1.453125 9.796875 -1.453125 C 10.929688 -1.453125 12.046875 -1.582031 13.140625 -1.84375 L 13.140625 -6.890625 L 9.46875 -6.890625 Z M 9.46875 -8.59375 "/></g></g></g><g fill="#000000" fill-opacity="1"><g transform="translate(207.744697, 196.601018)"><g><path d="M 11.390625 0 L 2.25 0 L 2.25 -16.390625 L 11.390625 -16.390625 L 11.390625 -14.703125 L 4.15625 -14.703125 L 4.15625 -9.421875 L 10.953125 -9.421875 L 10.953125 -7.734375 L 4.15625 -7.734375 L 4.15625 -1.703125 L 11.390625 -1.703125 Z M 11.390625 0 "/></g></g></g><g fill="#000000" fill-opacity="1"><g transform="translate(227.058913, 196.601018)"><g><path d="M 15.0625 0 L 12.890625 0 L 3.921875 -13.765625 L 3.828125 -13.765625 C 3.953125 -12.148438 4.015625 -10.664062 4.015625 -9.3125 L 4.015625 0 L 2.25 0 L 2.25 -16.390625 L 4.40625 -16.390625 L 13.34375 -2.6875 L 13.4375 -2.6875 C 13.414062 -2.894531 13.378906 -3.546875 13.328125 -4.640625 C 13.273438 -5.734375 13.257812 -6.515625 13.28125 -6.984375 L 13.28125 -16.390625 L 15.0625 -16.390625 Z M 15.0625 0 "/></g></g></g><g fill="#000000" fill-opacity="1"><g transform="translate(250.912965, 196.601018)"><g><path d="M 2.25 0 L 2.25 -16.390625 L 4.15625 -16.390625 L 4.15625 0 Z M 2.25 0 "/></g></g></g><g fill="#000000" fill-opacity="1"><g transform="translate(263.860192, 196.601018)"><g><path d="M 11.390625 0 L 2.25 0 L 2.25 -16.390625 L 11.390625 -16.390625 L 11.390625 -14.703125 L 4.15625 -14.703125 L 4.15625 -9.421875 L 10.953125 -9.421875 L 10.953125 -7.734375 L 4.15625 -7.734375 L 4.15625 -1.703125 L 11.390625 -1.703125 Z M 11.390625 0 "/></g></g></g><g fill="#000000" fill-opacity="1"><g transform="translate(283.174408, 196.601018)"><g><path d="M 4.15625 -6.8125 L 4.15625 0 L 2.25 0 L 2.25 -16.390625 L 6.75 -16.390625 C 8.757812 -16.390625 10.242188 -16.003906 11.203125 -15.234375 C 12.171875 -14.472656 12.65625 -13.316406 12.65625 -11.765625 C 12.65625 -9.597656 11.554688 -8.132812 9.359375 -7.375 L 13.8125 0 L 11.546875 0 L 7.578125 -6.8125 Z M 4.15625 -8.453125 L 6.78125 -8.453125 C 8.125 -8.453125 9.109375 -8.71875 9.734375 -9.25 C 10.359375 -9.789062 10.671875 -10.59375 10.671875 -11.65625 C 10.671875 -12.75 10.351562 -13.53125 9.71875 -14 C 9.082031 -14.476562 8.054688 -14.71875 6.640625 -14.71875 L 4.15625 -14.71875 Z M 4.15625 -8.453125 "/></g></g></g><g fill="#000000" fill-opacity="1"><g transform="translate(303.912223, 196.601018)"><g><path d="M 2.25 0 L 2.25 -16.390625 L 4.15625 -16.390625 L 4.15625 0 Z M 2 -18 C 2.363281 -18.457031 2.75 -19.015625 3.15625 -19.671875 C 3.570312 -20.335938 3.898438 -20.910156 4.140625 -21.390625 L 6.40625 -21.390625 L 6.40625 -21.15625 C 6.082031 -20.664062 5.59375 -20.066406 4.9375 -19.359375 C 4.289062 -18.648438 3.726562 -18.101562 3.25 -17.71875 L 2 -17.71875 Z M 2 -18 "/></g></g></g><g fill="#000000" fill-opacity="1"><g transform="translate(316.85945, 196.601018)"><g><path d="M 12.5625 0 L 10.515625 -5.21875 L 3.953125 -5.21875 L 1.921875 0 L 0 0 L 6.484375 -16.46875 L 8.09375 -16.46875 L 14.53125 0 Z M 9.921875 -6.9375 L 8.015625 -12.015625 C 7.773438 -12.648438 7.519531 -13.4375 7.25 -14.375 C 7.09375 -13.65625 6.859375 -12.867188 6.546875 -12.015625 L 4.625 -6.9375 Z M 9.921875 -6.9375 "/></g></g></g><g fill="#000000" fill-opacity="1"><g transform="translate(337.93355, 196.601018)"><g/></g></g><g fill="#000000" fill-opacity="1"><g transform="translate(350.443601, 196.601018)"><g><path d="M 6.421875 -8.203125 L 10.796875 -16.390625 L 12.859375 -16.390625 L 7.390625 -6.359375 L 7.390625 0 L 5.46875 0 L 5.46875 -6.265625 L 0 -16.390625 L 2.09375 -16.390625 Z M 6.421875 -8.203125 "/></g></g></g><g fill="#000000" fill-opacity="1"><g transform="translate(369.847493, 196.601018)"><g/></g></g><g fill="#000000" fill-opacity="1"><g transform="translate(382.357556, 196.601018)"><g><path d="M 9.28125 -14.921875 C 7.476562 -14.921875 6.050781 -14.320312 5 -13.125 C 3.957031 -11.925781 3.4375 -10.285156 3.4375 -8.203125 C 3.4375 -6.054688 3.9375 -4.394531 4.9375 -3.21875 C 5.945312 -2.050781 7.382812 -1.46875 9.25 -1.46875 C 10.394531 -1.46875 11.703125 -1.675781 13.171875 -2.09375 L 13.171875 -0.421875 C 12.035156 0.00390625 10.632812 0.21875 8.96875 0.21875 C 6.550781 0.21875 4.6875 -0.507812 3.375 -1.96875 C 2.0625 -3.4375 1.40625 -5.519531 1.40625 -8.21875 C 1.40625 -9.90625 1.71875 -11.382812 2.34375 -12.65625 C 2.976562 -13.925781 3.890625 -14.90625 5.078125 -15.59375 C 6.273438 -16.28125 7.679688 -16.625 9.296875 -16.625 C 11.015625 -16.625 12.519531 -16.3125 13.8125 -15.6875 L 13 -14.046875 C 11.757812 -14.628906 10.519531 -14.921875 9.28125 -14.921875 Z M 9.28125 -14.921875 "/></g></g></g><g fill="#000000" fill-opacity="1"><g transform="translate(403.386806, 196.601018)"><g><path d="M 16.484375 -8.21875 C 16.484375 -5.59375 15.816406 -3.53125 14.484375 -2.03125 C 13.160156 -0.53125 11.320312 0.21875 8.96875 0.21875 C 6.550781 0.21875 4.6875 -0.515625 3.375 -1.984375 C 2.0625 -3.460938 1.40625 -5.550781 1.40625 -8.25 C 1.40625 -10.914062 2.0625 -12.984375 3.375 -14.453125 C 4.6875 -15.921875 6.554688 -16.65625 8.984375 -16.65625 C 11.335938 -16.65625 13.175781 -15.90625 14.5 -14.40625 C 15.820312 -12.914062 16.484375 -10.851562 16.484375 -8.21875 Z M 3.421875 -8.21875 C 3.421875 -6 3.894531 -4.316406 4.84375 -3.171875 C 5.789062 -2.023438 7.164062 -1.453125 8.96875 -1.453125 C 10.78125 -1.453125 12.148438 -2.019531 13.078125 -3.15625 C 14.003906 -4.300781 14.46875 -5.988281 14.46875 -8.21875 C 14.46875 -10.425781 14.003906 -12.097656 13.078125 -13.234375 C 12.160156 -14.378906 10.796875 -14.953125 8.984375 -14.953125 C 7.171875 -14.953125 5.789062 -14.375 4.84375 -13.21875 C 3.894531 -12.070312 3.421875 -10.40625 3.421875 -8.21875 Z M 3.421875 -8.21875 "/></g></g></g><g fill="#000000" fill-opacity="1"><g transform="translate(427.812547, 196.601018)"><g><path d="M 15.0625 0 L 12.890625 0 L 3.921875 -13.765625 L 3.828125 -13.765625 C 3.953125 -12.148438 4.015625 -10.664062 4.015625 -9.3125 L 4.015625 0 L 2.25 0 L 2.25 -16.390625 L 4.40625 -16.390625 L 13.34375 -2.6875 L 13.4375 -2.6875 C 13.414062 -2.894531 13.378906 -3.546875 13.328125 -4.640625 C 13.273438 -5.734375 13.257812 -6.515625 13.28125 -6.984375 L 13.28125 -16.390625 L 15.0625 -16.390625 Z M 15.0625 0 "/></g></g></g><g fill="#000000" fill-opacity="1"><g transform="translate(451.666588, 196.601018)"><g><path d="M 11.5 -4.359375 C 11.5 -2.921875 10.972656 -1.796875 9.921875 -0.984375 C 8.878906 -0.179688 7.460938 0.21875 5.671875 0.21875 C 3.734375 0.21875 2.238281 -0.03125 1.1875 -0.53125 L 1.1875 -2.359375 C 1.863281 -2.078125 2.597656 -1.851562 3.390625 -1.6875 C 4.179688 -1.53125 4.96875 -1.453125 5.75 -1.453125 C 7.019531 -1.453125 7.972656 -1.691406 8.609375 -2.171875 C 9.253906 -2.648438 9.578125 -3.320312 9.578125 -4.1875 C 9.578125 -4.75 9.460938 -5.210938 9.234375 -5.578125 C 9.003906 -5.941406 8.625 -6.273438 8.09375 -6.578125 C 7.5625 -6.890625 6.75 -7.238281 5.65625 -7.625 C 4.125 -8.164062 3.03125 -8.8125 2.375 -9.5625 C 1.726562 -10.3125 1.40625 -11.289062 1.40625 -12.5 C 1.40625 -13.757812 1.878906 -14.757812 2.828125 -15.5 C 3.773438 -16.25 5.03125 -16.625 6.59375 -16.625 C 8.226562 -16.625 9.726562 -16.328125 11.09375 -15.734375 L 10.5 -14.078125 C 9.144531 -14.640625 7.828125 -14.921875 6.546875 -14.921875 C 5.535156 -14.921875 4.742188 -14.703125 4.171875 -14.265625 C 3.609375 -13.835938 3.328125 -13.238281 3.328125 -12.46875 C 3.328125 -11.90625 3.429688 -11.441406 3.640625 -11.078125 C 3.847656 -10.710938 4.203125 -10.378906 4.703125 -10.078125 C 5.203125 -9.773438 5.960938 -9.441406 6.984375 -9.078125 C 8.703125 -8.460938 9.882812 -7.800781 10.53125 -7.09375 C 11.175781 -6.394531 11.5 -5.484375 11.5 -4.359375 Z M 11.5 -4.359375 "/></g></g></g><g fill="#000000" fill-opacity="1"><g transform="translate(470.812668, 196.601018)"><g><path d="M 7.296875 0 L 5.390625 0 L 5.390625 -14.703125 L 0.203125 -14.703125 L 0.203125 -16.390625 L 12.5 -16.390625 L 12.5 -14.703125 L 7.296875 -14.703125 Z M 7.296875 0 "/></g></g></g><g fill="#000000" fill-opacity="1"><g transform="translate(490.059638, 196.601018)"><g><path d="M 4.15625 -6.8125 L 4.15625 0 L 2.25 0 L 2.25 -16.390625 L 6.75 -16.390625 C 8.757812 -16.390625 10.242188 -16.003906 11.203125 -15.234375 C 12.171875 -14.472656 12.65625 -13.316406 12.65625 -11.765625 C 12.65625 -9.597656 11.554688 -8.132812 9.359375 -7.375 L 13.8125 0 L 11.546875 0 L 7.578125 -6.8125 Z M 4.15625 -8.453125 L 6.78125 -8.453125 C 8.125 -8.453125 9.109375 -8.71875 9.734375 -9.25 C 10.359375 -9.789062 10.671875 -10.59375 10.671875 -11.65625 C 10.671875 -12.75 10.351562 -13.53125 9.71875 -14 C 9.082031 -14.476562 8.054688 -14.71875 6.640625 -14.71875 L 4.15625 -14.71875 Z M 4.15625 -8.453125 "/></g></g></g><g fill="#000000" fill-opacity="1"><g transform="translate(510.79743, 196.601018)"><g><path d="M 14.640625 -16.390625 L 14.640625 -5.78125 C 14.640625 -3.914062 14.070312 -2.445312 12.9375 -1.375 C 11.8125 -0.3125 10.257812 0.21875 8.28125 0.21875 C 6.3125 0.21875 4.785156 -0.316406 3.703125 -1.390625 C 2.628906 -2.460938 2.09375 -3.941406 2.09375 -5.828125 L 2.09375 -16.390625 L 4 -16.390625 L 4 -5.703125 C 4 -4.328125 4.367188 -3.273438 5.109375 -2.546875 C 5.859375 -1.816406 6.957031 -1.453125 8.40625 -1.453125 C 9.789062 -1.453125 10.859375 -1.816406 11.609375 -2.546875 C 12.359375 -3.285156 12.734375 -4.34375 12.734375 -5.71875 L 12.734375 -16.390625 Z M 14.640625 -16.390625 "/></g></g></g><g fill="#000000" fill-opacity="1"><g transform="translate(534.057409, 196.601018)"><g><path d="M 9.28125 -14.921875 C 7.476562 -14.921875 6.050781 -14.320312 5 -13.125 C 3.957031 -11.925781 3.4375 -10.285156 3.4375 -8.203125 C 3.4375 -6.054688 3.9375 -4.394531 4.9375 -3.21875 C 5.945312 -2.050781 7.382812 -1.46875 9.25 -1.46875 C 10.394531 -1.46875 11.703125 -1.675781 13.171875 -2.09375 L 13.171875 -0.421875 C 12.035156 0.00390625 10.632812 0.21875 8.96875 0.21875 C 6.550781 0.21875 4.6875 -0.507812 3.375 -1.96875 C 2.0625 -3.4375 1.40625 -5.519531 1.40625 -8.21875 C 1.40625 -9.90625 1.71875 -11.382812 2.34375 -12.65625 C 2.976562 -13.925781 3.890625 -14.90625 5.078125 -15.59375 C 6.273438 -16.28125 7.679688 -16.625 9.296875 -16.625 C 11.015625 -16.625 12.519531 -16.3125 13.8125 -15.6875 L 13 -14.046875 C 11.757812 -14.628906 10.519531 -14.921875 9.28125 -14.921875 Z M 9.28125 -14.921875 "/></g></g></g><g fill="#000000" fill-opacity="1"><g transform="translate(555.086659, 196.601018)"><g><path d="M 9.28125 -14.921875 C 7.476562 -14.921875 6.050781 -14.320312 5 -13.125 C 3.957031 -11.925781 3.4375 -10.285156 3.4375 -8.203125 C 3.4375 -6.054688 3.9375 -4.394531 4.9375 -3.21875 C 5.945312 -2.050781 7.382812 -1.46875 9.25 -1.46875 C 10.394531 -1.46875 11.703125 -1.675781 13.171875 -2.09375 L 13.171875 -0.421875 C 12.035156 0.00390625 10.632812 0.21875 8.96875 0.21875 C 6.550781 0.21875 4.6875 -0.507812 3.375 -1.96875 C 2.0625 -3.4375 1.40625 -5.519531 1.40625 -8.21875 C 1.40625 -9.90625 1.71875 -11.382812 2.34375 -12.65625 C 2.976562 -13.925781 3.890625 -14.90625 5.078125 -15.59375 C 6.273438 -16.28125 7.679688 -16.625 9.296875 -16.625 C 11.015625 -16.625 12.519531 -16.3125 13.8125 -15.6875 L 13 -14.046875 C 11.757812 -14.628906 10.519531 -14.921875 9.28125 -14.921875 Z M 9.28125 -14.921875 "/></g></g></g><g fill="#000000" fill-opacity="1"><g transform="translate(576.115908, 196.601018)"><g><path d="M 2.25 0 L 2.25 -16.390625 L 4.15625 -16.390625 L 4.15625 0 Z M 2.25 0 "/></g></g></g><g fill="#000000" fill-opacity="1"><g transform="translate(589.063158, 196.601018)"><g><path d="M 16.484375 -8.21875 C 16.484375 -5.59375 15.816406 -3.53125 14.484375 -2.03125 C 13.160156 -0.53125 11.320312 0.21875 8.96875 0.21875 C 6.550781 0.21875 4.6875 -0.515625 3.375 -1.984375 C 2.0625 -3.460938 1.40625 -5.550781 1.40625 -8.25 C 1.40625 -10.914062 2.0625 -12.984375 3.375 -14.453125 C 4.6875 -15.921875 6.554688 -16.65625 8.984375 -16.65625 C 11.335938 -16.65625 13.175781 -15.90625 14.5 -14.40625 C 15.820312 -12.914062 16.484375 -10.851562 16.484375 -8.21875 Z M 3.421875 -8.21875 C 3.421875 -6 3.894531 -4.316406 4.84375 -3.171875 C 5.789062 -2.023438 7.164062 -1.453125 8.96875 -1.453125 C 10.78125 -1.453125 12.148438 -2.019531 13.078125 -3.15625 C 14.003906 -4.300781 14.46875 -5.988281 14.46875 -8.21875 C 14.46875 -10.425781 14.003906 -12.097656 13.078125 -13.234375 C 12.160156 -14.378906 10.796875 -14.953125 8.984375 -14.953125 C 7.171875 -14.953125 5.789062 -14.375 4.84375 -13.21875 C 3.894531 -12.070312 3.421875 -10.40625 3.421875 -8.21875 Z M 7.390625 -18 C 7.753906 -18.457031 8.140625 -19.015625 8.546875 -19.671875 C 8.960938 -20.335938 9.289062 -20.910156 9.53125 -21.390625 L 11.796875 -21.390625 L 11.796875 -21.15625 C 11.472656 -20.664062 10.984375 -20.066406 10.328125 -19.359375 C 9.679688 -18.648438 9.117188 -18.101562 8.640625 -17.71875 L 7.390625 -17.71875 Z M 7.390625 -18 "/></g></g></g><g fill="#000000" fill-opacity="1"><g transform="translate(613.488877, 196.601018)"><g><path d="M 15.0625 0 L 12.890625 0 L 3.921875 -13.765625 L 3.828125 -13.765625 C 3.953125 -12.148438 4.015625 -10.664062 4.015625 -9.3125 L 4.015625 0 L 2.25 0 L 2.25 -16.390625 L 4.40625 -16.390625 L 13.34375 -2.6875 L 13.4375 -2.6875 C 13.414062 -2.894531 13.378906 -3.546875 13.328125 -4.640625 C 13.273438 -5.734375 13.257812 -6.515625 13.28125 -6.984375 L 13.28125 -16.390625 L 15.0625 -16.390625 Z M 15.0625 0 "/></g></g></g><g transform="matrix(1, 0, 0, 1, 667, 97)"><g clip-path="url(#eab74fd2f1)"><g fill="#000000" fill-opacity="1"><g transform="translate(0.649738, 38.540461)"><g><path d="M 18.09375 -7.015625 C 18.09375 -4.734375 17.269531 -2.9375 15.625 -1.625 C 13.988281 -0.3125 11.707031 0.34375 8.78125 0.34375 C 6.082031 0.34375 3.695312 -0.160156 1.625 -1.171875 L 1.625 -6.15625 C 3.332031 -5.394531 4.773438 -4.859375 5.953125 -4.546875 C 7.128906 -4.234375 8.207031 -4.078125 9.1875 -4.078125 C 10.363281 -4.078125 11.265625 -4.300781 11.890625 -4.75 C 12.523438 -5.195312 12.84375 -5.863281 12.84375 -6.75 C 12.84375 -7.25 12.703125 -7.691406 12.421875 -8.078125 C 12.148438 -8.460938 11.742188 -8.832031 11.203125 -9.1875 C 10.671875 -9.550781 9.582031 -10.125 7.9375 -10.90625 C 6.382812 -11.632812 5.222656 -12.332031 4.453125 -13 C 3.679688 -13.664062 3.066406 -14.441406 2.609375 -15.328125 C 2.148438 -16.210938 1.921875 -17.25 1.921875 -18.4375 C 1.921875 -20.675781 2.675781 -22.429688 4.1875 -23.703125 C 5.707031 -24.984375 7.800781 -25.625 10.46875 -25.625 C 11.78125 -25.625 13.03125 -25.46875 14.21875 -25.15625 C 15.414062 -24.84375 16.664062 -24.40625 17.96875 -23.84375 L 16.25 -19.6875 C 14.894531 -20.238281 13.773438 -20.625 12.890625 -20.84375 C 12.015625 -21.0625 11.148438 -21.171875 10.296875 -21.171875 C 9.285156 -21.171875 8.507812 -20.929688 7.96875 -20.453125 C 7.425781 -19.984375 7.15625 -19.367188 7.15625 -18.609375 C 7.15625 -18.140625 7.265625 -17.726562 7.484375 -17.375 C 7.703125 -17.019531 8.050781 -16.675781 8.53125 -16.34375 C 9.007812 -16.019531 10.140625 -15.429688 11.921875 -14.578125 C 14.285156 -13.453125 15.90625 -12.320312 16.78125 -11.1875 C 17.65625 -10.050781 18.09375 -8.660156 18.09375 -7.015625 Z M 18.09375 -7.015625 "/></g></g></g><g fill="#000000" fill-opacity="1"><g transform="translate(20.139532, 38.540461)"><g><path d="M 13.375 0.34375 C 11.101562 0.34375 9.320312 -0.476562 8.03125 -2.125 L 7.765625 -2.125 C 7.941406 -0.507812 8.03125 0.421875 8.03125 0.671875 L 8.03125 8.5 L 2.765625 8.5 L 2.765625 -19.3125 L 7.046875 -19.3125 L 7.796875 -16.8125 L 8.03125 -16.8125 C 9.269531 -18.726562 11.097656 -19.6875 13.515625 -19.6875 C 15.796875 -19.6875 17.582031 -18.800781 18.875 -17.03125 C 20.164062 -15.269531 20.8125 -12.820312 20.8125 -9.6875 C 20.8125 -7.625 20.503906 -5.832031 19.890625 -4.3125 C 19.285156 -2.800781 18.425781 -1.644531 17.3125 -0.84375 C 16.195312 -0.0507812 14.882812 0.34375 13.375 0.34375 Z M 11.8125 -15.46875 C 10.519531 -15.46875 9.570312 -15.066406 8.96875 -14.265625 C 8.363281 -13.460938 8.050781 -12.140625 8.03125 -10.296875 L 8.03125 -9.734375 C 8.03125 -7.660156 8.335938 -6.171875 8.953125 -5.265625 C 9.578125 -4.367188 10.554688 -3.921875 11.890625 -3.921875 C 14.253906 -3.921875 15.4375 -5.867188 15.4375 -9.765625 C 15.4375 -11.660156 15.144531 -13.082031 14.5625 -14.03125 C 13.976562 -14.988281 13.0625 -15.46875 11.8125 -15.46875 Z M 11.8125 -15.46875 "/></g></g></g><g fill="#000000" fill-opacity="1"><g transform="translate(42.532061, 38.540461)"><g><path d="M 18.640625 0 L 16.8125 -6.015625 L 7.609375 -6.015625 L 5.765625 0 L 0 0 L 8.921875 -25.375 L 15.46875 -25.375 L 24.421875 0 Z M 15.53125 -10.5 C 13.84375 -15.957031 12.890625 -19.039062 12.671875 -19.75 C 12.460938 -20.46875 12.3125 -21.03125 12.21875 -21.4375 C 11.832031 -19.96875 10.742188 -16.320312 8.953125 -10.5 Z M 15.53125 -10.5 "/></g></g></g></g></g><path stroke-linecap="butt" transform="matrix(0.75, 0, 0, 0.75, 75.105086, 187.976033)" fill="none" stroke-linejoin="miter" d="M 0.000510773 2.000707 L 76.594264 2.000707 " stroke="#8f1a1a" stroke-width="4" stroke-opacity="1" stroke-miterlimit="4"/><path stroke-linecap="butt" transform="matrix(0.75, 0, 0, 0.75, 646.136685, 187.976033)" fill="none" stroke-linejoin="miter" d="M 0.0000448965 2.000707 L 76.593798 2.000707 " stroke="#8f1a1a" stroke-width="4" stroke-opacity="1" stroke-miterlimit="4"/></svg>